<svg width="83" height="54" viewBox="0 0 83 54" fill="none" xmlns="http://www.w3.org/2000/svg">
<g clip-path="url(#clip0_3364_266)">
<path d="M76.6405 53.3145C72.7588 53.3145 70.4569 51.4489 70.2806 48.7624H73.9919C73.9919 49.658 74.5204 50.85 76.8168 50.9241C78.4082 50.9241 79.2888 50.0287 79.2888 49.3555C79.1126 48.3116 77.6974 48.2375 76.288 48.0094C74.6966 47.7927 73.4635 47.4903 72.5767 47.1195C71.3436 46.5206 70.6328 45.2485 70.6328 43.9081C70.6328 41.5177 72.7588 39.6522 76.4643 39.6522C79.9996 39.6522 82.2957 41.3696 82.4656 43.9821H78.9366C78.9366 43.3144 78.7604 42.1909 76.6402 42.1909C75.2251 42.1909 74.3444 42.4133 74.1682 43.383C74.1682 44.7294 77.169 44.6551 79.4651 45.1742C81.5849 45.699 83.0001 46.9654 83.0001 48.7624C83.0001 52.0481 80.1756 53.3145 76.6405 53.3145ZM9.00879 31.2698L21.194 24.624L27.7299 35.1546H11.3049" fill="#252525"/>
<path d="M34.6323 52.9182V39.627V52.9182Z" fill="#252525"/>
<path d="M34.6323 52.9182V39.627" stroke="#252525"/>
<path d="M3.35328 46.4687C3.35328 48.5563 5.29691 50.2735 7.41069 50.2735C9.71289 50.2735 11.4745 48.5563 11.4745 46.4687C11.4745 44.455 9.71289 42.6638 7.41069 42.6638C5.29691 42.6638 3.35328 44.455 3.35328 46.4687ZM7.23473 53.3368C3.353 53.3368 0 50.2735 0 46.4687C0 42.6638 3.35328 39.6748 7.23473 39.6748C8.82615 39.6748 10.2413 40.0513 11.4745 40.8669V39.8229H15.0098V53.0344H11.4747V52.2131C10.4179 52.9603 8.82643 53.3368 7.23501 53.3368H7.23473ZM54.3978 35.151L37.4444 7.38191L49.6294 0.662109L70.8228 35.151H54.3978ZM19.602 46.4687C19.602 48.5563 21.37 50.2735 23.6658 50.2735C25.7796 50.2735 27.7296 48.5563 27.7296 46.4687C27.7296 44.455 25.7796 42.6638 23.6658 42.6638C21.3697 42.6638 19.602 44.455 19.602 46.4687ZM23.4896 53.3368C19.4258 53.3368 16.249 50.2735 16.249 46.4687C16.249 42.6638 19.4258 39.6748 23.4896 39.6748C25.0749 39.6748 26.4904 40.0513 27.7296 40.8669V35.2708H31.2588V53.0344H27.7293V52.2131C26.4901 52.9603 25.0749 53.3368 23.4893 53.3368H23.4896ZM23.3155 19.4003L35.6767 12.8346L49.2774 35.1502H36.3817V38.436H32.8522V35.1502L23.3155 19.4003ZM80.71 38.5394C79.8233 38.5394 78.9426 37.7921 78.9426 36.8965C78.9426 36.0009 79.8233 35.2537 80.71 35.2537C81.7669 35.2537 82.478 36.0012 82.478 36.8965C82.478 37.7919 81.7669 38.5396 80.71 38.5396V38.5394ZM80.71 35.482C79.8233 35.482 79.2948 36.1493 79.2948 36.8965C79.2948 37.6438 79.8233 38.317 80.71 38.317C81.5909 38.317 82.1194 37.644 82.1194 36.8965C82.1194 36.149 81.5909 35.482 80.71 35.482Z" fill="#252525"/>
<path d="M81.0747 37.7985L80.7223 37.0513H80.3701V37.7985H80.1028V36.0073H80.8985C81.0747 36.0073 81.4269 36.2357 81.4269 36.5321C81.4269 36.8286 81.2507 36.9772 81.0747 37.0513L81.4269 37.7985H81.0747ZM80.7223 36.2357H80.3701V36.8289H80.7223C81.0747 36.8289 81.0747 36.7548 81.0747 36.5321C81.0747 36.3783 81.0747 36.2357 80.7223 36.2357ZM57.3846 46.4694C57.3846 48.557 59.1525 50.2742 61.4483 50.2742C63.5682 50.2742 65.506 48.557 65.506 46.4694C65.506 44.4557 63.5682 42.6645 61.4483 42.6645C59.1522 42.6645 57.3846 44.4557 57.3846 46.4694ZM61.2663 53.3375C57.2086 53.3375 54.0316 50.2742 54.0316 46.4694C54.0316 42.6645 57.2086 39.6755 61.266 39.6755C62.8577 39.6755 64.2729 40.052 65.506 40.8676V39.8236H68.8651V53.0351H65.5063V52.2138C64.2729 52.961 62.8577 53.3375 61.266 53.3375H61.2663ZM41.148 46.4694C41.148 48.557 43.0916 50.2742 45.2115 50.2742C47.5079 50.2742 49.2753 48.557 49.2753 46.4694C49.2753 44.4557 47.5076 42.6645 45.2115 42.6645C43.0916 42.6645 41.148 44.4557 41.148 46.4694ZM49.2753 35.2715H52.8045V53.0351H49.2753V52.2138C48.2123 52.961 46.7971 53.3375 45.2115 53.3375C41.148 53.3375 37.7947 50.2742 37.7947 46.4694C37.7947 42.6645 41.148 39.6755 45.2115 39.6755C46.7968 39.6755 48.2123 40.052 49.2753 40.8676V35.2715Z" fill="#252525"/>
</g>
<defs>
<clipPath id="clip0_3364_266">
<rect width="83" height="52.722" fill="white" transform="translate(0 0.63916)"/>
</clipPath>
</defs>
</svg>
