<svg width="29" height="40" viewBox="0 0 29 40" fill="none" xmlns="http://www.w3.org/2000/svg">
<path d="M7.49998 35V38.75C7.49998 39.164 7.83598 39.5 8.24998 39.5H11.25C11.4489 39.5 11.6397 39.421 11.7803 39.2803C11.921 39.1397 12 38.9489 12 38.75V35H13.5V38.75C13.5 39.164 13.836 39.5 14.25 39.5H17.25C17.4489 39.5 17.6397 39.421 17.7803 39.2803C17.921 39.1397 18 38.9489 18 38.75V35H18.252C24.228 35 28.5 31.901 28.5 26.54C28.5 22.034 25.479 19.571 21.942 19.22V18.956C24.852 18.23 26.991 16.034 26.991 12.386C26.991 7.79 23.541 5 18.276 5H18V1.25C18 1.05109 17.921 0.860322 17.7803 0.71967C17.6397 0.579018 17.4489 0.5 17.25 0.5H14.25C14.0511 0.5 13.8603 0.579018 13.7197 0.71967C13.579 0.860322 13.5 1.05109 13.5 1.25V5H11.781V1.25C11.781 1.05109 11.702 0.860322 11.5613 0.71967C11.4207 0.579018 11.2299 0.5 11.031 0.5H8.24998C8.05107 0.5 7.8603 0.579018 7.71965 0.71967C7.579 0.860322 7.49998 1.05109 7.49998 1.25V5L1.50598 5.033C1.30707 5.033 1.1163 5.11202 0.975651 5.25267C0.834999 5.39332 0.755981 5.58409 0.755981 5.783V8.75C0.755981 9.161 1.08598 9.5 1.49998 9.5L3.76498 9.485C4.35912 9.48896 4.92757 9.72776 5.34628 10.1493C5.765 10.5708 5.99999 11.1409 5.99998 11.735V28.25C5.99998 28.8467 5.76293 29.419 5.34097 29.841C4.91901 30.2629 4.34672 30.5 3.74998 30.5L1.50598 30.533C1.30707 30.533 1.1163 30.612 0.975651 30.7527C0.834999 30.8933 0.755981 31.0841 0.755981 31.283V34.283C0.755981 34.697 1.09198 35.033 1.50598 35.033L7.49998 35ZM11.781 9.461H16.938C19.656 9.461 21.252 10.955 21.252 13.397C21.252 16.01 19.527 17.483 15.621 17.483H11.781V9.461ZM11.781 21.614H17.301C20.712 21.614 22.569 23.354 22.569 26.186C22.569 29.045 20.691 30.536 16.095 30.536H11.781V21.617V21.614Z" fill="black"/>
</svg>
