<svg width="108" height="30" viewBox="0 0 108 30" fill="none" xmlns="http://www.w3.org/2000/svg">
<g clip-path="url(#clip0_3364_279)">
<path d="M0.327604 1.51567H14.349C26.4049 1.51567 31.1223 8.09044 31.1223 15.0508C31.1223 22.1328 25.0726 28.4438 13.5628 28.4438H0.349444C0.109201 28.4438 0.0218402 28.3018 0.0218402 28.18C0.0218402 28.038 0.174722 27.9162 0.393124 27.9162H2.86107C3.62548 27.9162 4.12781 27.4901 4.12781 26.6987V3.30141C4.12781 2.71293 3.82204 2.06357 2.81739 2.06357H0.305763C0.109201 2.06357 0 1.94181 0 1.79977C0 1.67801 0.0436805 1.51567 0.327604 1.51567ZM9.08554 27.1857C9.08554 27.7742 9.36946 27.9568 9.78443 27.9568H13.4973C22.6483 27.9568 25.9681 21.4429 25.9681 14.9087C25.9681 8.37453 22.4518 2.04328 14.7203 2.04328H9.67523C9.15106 2.04328 9.10738 2.44913 9.10738 2.63176L9.08554 27.1857ZM32.5201 1.51567C32.3017 1.51567 32.1052 1.59684 32.1052 1.75918C32.1052 1.92152 32.2144 2.02298 32.4109 2.02298H34.8789C35.4467 2.02298 35.9927 2.38825 35.9927 3.40287V26.7189C35.9927 27.206 35.5996 27.9365 34.9007 27.9365H32.4546C32.1707 27.9365 32.1488 28.1394 32.1488 28.2206C32.1488 28.3018 32.127 28.4438 32.4546 28.4438H44.3357C44.5104 28.4438 44.7507 28.4235 44.7507 28.2612C44.7507 28.0988 44.707 27.9365 44.4012 27.9365H42.108C41.7804 27.9365 40.8849 27.7539 40.8849 26.8204V3.15936C40.8849 2.48971 41.3436 2.04328 42.1735 2.04328H44.4231C44.6196 2.04328 44.7288 1.94181 44.7288 1.79977C44.7288 1.65772 44.6196 1.53596 44.3575 1.53596H32.5201V1.51567ZM51.0843 14.9899C51.0843 7.54254 54.6661 1.51567 61.3929 1.51567C67.9887 1.51567 71.7015 7.54254 71.7015 14.9899C71.7015 22.4372 68.3163 28.4641 61.3929 28.4641C54.688 28.4844 51.0843 22.4372 51.0843 14.9899ZM61.3929 29.0323C70.959 29.0323 76.9869 22.7416 76.9869 15.0102C76.9869 7.27874 71.0245 0.967773 61.3929 0.967773C51.7832 0.967773 45.799 7.25845 45.799 14.9899C45.799 22.7213 52.0235 29.0323 61.3929 29.0323ZM107.563 28.2815C103.807 28.6467 101.732 22.9242 99.8317 20.2051C98.4121 18.1961 95.3982 16.1466 92.4279 15.7407C97.3201 15.4769 102.802 14.0158 102.802 8.86155C102.802 4.6813 100.028 1.51567 89.8508 1.51567H78.1226C77.9697 1.51567 77.8168 1.59684 77.8168 1.75918C77.8168 1.92152 77.9697 2.02298 78.1226 2.02298H80.8089C81.3767 2.02298 81.9228 2.38825 81.9228 3.40287V26.7189C81.9228 27.206 81.5296 27.9365 80.8307 27.9365H78.1881C77.9697 27.9365 77.8823 28.0988 77.8823 28.18C77.8823 28.2612 77.9697 28.4438 78.1881 28.4438H90.637C90.8117 28.4438 90.9646 28.3626 90.9646 28.2003C90.9646 28.038 90.8554 27.9365 90.6152 27.9365H88.1035C87.7759 27.9365 86.8805 27.7336 86.8805 26.8204V15.8016H88.1691C94.328 15.8016 94.7867 22.0111 97.8443 25.5623C100.465 28.6061 103.894 28.9917 105.838 28.9917C106.668 28.9917 107.236 28.9714 107.76 28.8497C108.087 28.7482 108.153 28.2206 107.563 28.2815ZM88.1254 2.02298H89.9381C93.0394 2.02298 98.0627 3.15936 98.0627 8.59775C98.0627 13.5897 93.6073 15.274 89.4795 15.274H86.8368V3.15936C86.8368 2.46942 87.2954 2.02298 88.1254 2.02298Z" fill="#252525"/>
</g>
<defs>
<clipPath id="clip0_3364_279">
<rect width="108" height="28.0645" fill="white" transform="translate(0 0.967773)"/>
</clipPath>
</defs>
</svg>
