<svg width="51" height="58" viewBox="0 0 51 58" fill="none" xmlns="http://www.w3.org/2000/svg">
<path fill-rule="evenodd" clip-rule="evenodd" d="M49.7722 52.5664H50.4447V57.9098L46.3346 53.8656V57.7111H45.6434V52.3131L49.7722 56.3755V52.5664ZM30.4546 52.5664V55.8336C30.4546 56.4112 30.2814 56.8805 29.9355 57.242C29.5711 57.6391 29.0718 57.8196 28.438 57.8196C27.8427 57.8196 27.3438 57.6391 26.9784 57.242C26.614 56.8805 26.4405 56.4112 26.4405 55.8336V52.5664H27.1324V55.6169C27.1324 56.6821 27.5548 57.224 28.438 57.224C29.3403 57.224 29.7822 56.6821 29.7822 55.6169V52.5664H30.4546ZM32.5668 52.5664H35.8504V53.1622H34.5448V57.7114H33.8918V53.1622H32.5668V52.5664ZM31.3763 52.5664H32.0675V57.7114H31.3763V52.5664ZM25.3272 52.5664H26.0761L23.6948 58L21.3138 52.5664H22.0627L23.6951 56.3755L25.3272 52.5664ZM44.3761 55.1476C44.3761 55.7251 44.1647 56.2128 43.7235 56.6279C43.3202 57.025 42.8017 57.2237 42.2058 57.2237C41.6106 57.2237 41.0922 57.025 40.6509 56.6279C40.209 56.2125 39.998 55.7251 39.998 55.1476C39.998 54.57 40.1899 54.0823 40.6124 53.6852C41.0348 53.2704 41.5727 53.0717 42.2058 53.0717C42.8397 53.0717 43.3581 53.2704 43.7614 53.6852C44.165 54.0823 44.3761 54.5697 44.3761 55.1476ZM44.2228 53.2521C43.647 52.7285 42.9745 52.4579 42.2062 52.4579C41.419 52.4579 40.7472 52.7285 40.1708 53.2521C39.6141 53.7754 39.3259 54.4076 39.3259 55.1472C39.3259 55.9052 39.6144 56.5374 40.1708 57.0607C40.7278 57.5663 41.3999 57.8193 42.2062 57.8193C42.994 57.8193 43.6849 57.5663 44.2228 57.0607C44.7797 56.5374 45.0676 55.9052 45.0676 55.1472C45.068 54.4076 44.7801 53.7754 44.2228 53.2521ZM39.1725 52.5664V53.1622H37.8858V57.7114H37.1945V53.1622H35.889V52.5664H39.1725ZM7.41075 53.6852C7.81406 54.0823 8.00599 54.57 8.00599 55.1476C8.00599 55.7251 7.79461 56.2128 7.37249 56.6279C6.95005 57.025 6.43131 57.2237 5.83606 57.2237C5.24081 57.2237 4.72241 57.025 4.28083 56.6279C3.87752 56.2125 3.64733 55.7251 3.64733 55.1476C3.64733 54.57 3.85839 54.0823 4.26171 53.6852C4.68415 53.2704 5.20289 53.0717 5.83639 53.0717C6.46989 53.0717 7.00776 53.2704 7.41075 53.6852ZM7.85265 53.2521C7.27653 52.7285 6.60444 52.4579 5.83639 52.4579C5.04888 52.4579 4.358 52.7285 3.82014 53.2521C3.24401 53.7754 2.95612 54.4076 2.95612 55.1472C2.95612 55.9052 3.24434 56.5374 3.82014 57.0607C4.358 57.5663 5.03009 57.8193 5.83639 57.8193C6.64303 57.8193 7.31511 57.5663 7.85265 57.0607C8.42877 56.5374 8.69754 55.9052 8.69754 55.1472C8.69754 54.4076 8.42877 53.7754 7.85265 53.2521ZM9.94574 55.6166C9.94574 56.6818 10.3873 57.2237 11.2708 57.2237C12.1351 57.2237 12.5958 56.6818 12.5958 55.6166V52.5661H13.2679V55.8333C13.2679 56.4109 13.0951 56.8802 12.73 57.2417C12.3653 57.6388 11.866 57.8193 11.2708 57.8193C10.6564 57.8193 10.1763 57.6388 9.81152 57.2417C9.42733 56.8802 9.25486 56.4109 9.25486 55.8333V52.5661H9.94607V55.6166H9.94574ZM1.22743 52.5664V57.1335H2.89808V57.7111H0.555344V52.5661H1.22743V52.5664ZM17.6843 54.6782C18.606 55.0208 19.0479 55.5264 19.0479 56.2125C19.0479 56.6818 18.8751 57.0607 18.5295 57.3679C18.203 57.6748 17.7997 57.8196 17.3196 57.8196C16.878 57.8196 16.4938 57.6931 16.1676 57.4042C15.8603 57.1335 15.6684 56.7903 15.6106 56.3755L16.3019 56.2307C16.3019 56.5197 16.3978 56.7544 16.6092 56.9531C16.8206 57.1335 17.0508 57.2237 17.3581 57.2237C17.6464 57.2237 17.8765 57.1152 18.0879 56.9168C18.2607 56.7364 18.3567 56.5014 18.3567 56.2128C18.3567 55.8156 18.0493 55.4911 17.4158 55.2378L17.0317 55.1119C16.2636 54.7687 15.8603 54.3356 15.8603 53.7937C15.8603 53.3966 16.0331 53.0537 16.3404 52.8187C16.6669 52.5664 17.0317 52.4579 17.4736 52.4579C18.1071 52.4579 18.5681 52.7285 18.8751 53.2521L18.3376 53.5411C18.1262 53.2341 17.8383 53.0717 17.4541 53.0717C17.2236 53.0717 16.9931 53.1256 16.8203 53.2521C16.6283 53.3963 16.532 53.5773 16.532 53.7934C16.532 54.1003 16.7817 54.3353 17.3192 54.5157L17.6843 54.6782ZM14.1896 52.5664H14.8812V57.7114H14.1896V52.5664ZM41.1552 6.05861L27.9107 35.4452L24.2567 27.9078L31.006 10.6385C31.5135 9.30292 33.2893 8.68258 36.2837 8.68258L37.3489 6.05861H21.6179L20.6028 8.68258C22.8357 8.68258 23.7492 9.30261 23.3937 10.6385L20.0448 19.4162L13.448 6.05861C12.2301 4.62759 12.8389 3.91176 15.2241 3.91176V0.811308H0V3.91207C2.84202 3.91207 4.61787 4.6279 5.37932 6.05892L16.5436 28.3852L11.3166 41.5041C11.2147 43.269 8.27179 44.1284 2.58809 44.1284L1.52258 46.7521H44.9611L51 34.6826H47.8536C44.9107 40.9318 41.5107 44.1284 37.7047 44.1284H17.7611L20.7044 36.7339L23.2417 41.5041H28.9254L44.9608 6.05923C45.7222 3.91238 47.7016 2.76781 50.7969 2.76781V0H37.7044V2.76719C41.6627 2.76719 42.7793 3.91207 41.1552 6.05861Z" fill="#252525"/>
</svg>
