<svg width="83" height="42" viewBox="0 0 83 42" fill="none" xmlns="http://www.w3.org/2000/svg">
<path fill-rule="evenodd" clip-rule="evenodd" d="M13.9124 25.5665C13.2524 25.5665 12.7356 26 12.7356 26.6326C12.7356 27.2656 13.255 27.6967 13.9124 27.6967C14.5693 27.6967 15.0891 27.2627 15.0891 26.6326C15.0891 26 14.5719 25.5665 13.9124 25.5665ZM13.9124 27.3918C13.4418 27.3918 13.0927 27.0691 13.0927 26.6326C13.0927 26.1966 13.4391 25.8713 13.9124 25.8713C14.3799 25.8713 14.7316 26.2016 14.7316 26.6326C14.7316 27.0612 14.3768 27.3918 13.9124 27.3918ZM25.3626 21.8374H19.6341L20.2853 12.4885L16.5652 21.8374H11.2457L19.686 0.70618H25.3462L24.6928 10.1833L28.4834 0.70618H33.8033L25.3626 21.8374ZM26.0536 21.8374L34.4935 0.70618H39.8129L31.3731 21.8374H26.0536Z" fill="#252525"/>
<path fill-rule="evenodd" clip-rule="evenodd" d="M10.6322 14.554C3.1988 22.7505 -3.81328 33.6567 2.38045 38.6789C8.38212 43.5458 15.8839 40.6642 20.9989 38.7431C26.1139 36.8219 82.6501 13.7693 82.6501 13.7693C83.1956 13.5132 83.0936 13.1929 82.4114 13.3528C82.1364 13.4174 20.8627 29.0093 20.8627 29.0093C13.0873 31.0587 4.22162 26.5921 10.6322 14.554Z" fill="#252525"/>
<path fill-rule="evenodd" clip-rule="evenodd" d="M14.1128 26.7077C14.2778 26.7002 14.4068 26.6203 14.4068 26.4058C14.4068 26.1293 14.2143 26.0597 13.8928 26.0597H13.4306V27.2063H13.7388V26.7182H13.7907L14.0715 27.2063H14.4259L14.1128 26.7077ZM13.9149 26.522H13.7393V26.2559H13.8874C13.9784 26.2559 14.0826 26.2659 14.0826 26.3771C14.0826 26.4962 14.0223 26.522 13.9149 26.522ZM67.3859 0.641602C66.7259 0.641602 66.2092 1.07556 66.2092 1.70777C66.2092 2.34039 66.729 2.77144 67.3859 2.77144C68.0428 2.77144 68.5627 2.33747 68.5627 1.70777C68.5631 1.07556 68.0464 0.641602 67.3859 0.641602ZM67.3859 2.46741C66.9153 2.46741 66.5663 2.14465 66.5663 1.70819C66.5663 1.27214 66.9127 0.946875 67.3859 0.946875C67.8534 0.946875 68.2056 1.27714 68.2056 1.70819C68.2056 2.13674 67.8508 2.46741 67.3859 2.46741Z" fill="#252525"/>
<path fill-rule="evenodd" clip-rule="evenodd" d="M67.5869 1.78276C67.7519 1.77527 67.8814 1.69531 67.8814 1.48082C67.8814 1.20428 67.6884 1.13473 67.3673 1.13473H66.9051V2.28087H67.213V1.79318H67.2653L67.5456 2.28087H67.9005L67.5869 1.78276ZM67.3886 1.59702H67.213V1.33089H67.3615C67.452 1.33089 67.5567 1.3413 67.5567 1.4525C67.5567 1.5712 67.4959 1.59702 67.3886 1.59702ZM63.881 4.2283L65.3106 0.70618H49.0793L43.5061 7.04574L46.0791 0.70618H40.6913L32.3189 21.8376H37.6384L41.2129 13.0009L41.4578 21.8376L57.78 21.8043L59.3337 17.7395H53.128L55.167 12.6169H60.2816L61.8553 8.67874H56.7407L58.4941 4.2283H63.881ZM46.7351 20.4287L46.394 9.41506L54.4369 1.12349L46.7351 20.4287Z" fill="#252525"/>
</svg>
