<svg width="158" height="26" viewBox="0 0 158 26" fill="none" xmlns="http://www.w3.org/2000/svg">
<path fill-rule="evenodd" clip-rule="evenodd" d="M2.86786 25.4982H0.64819C0.462993 25.4982 0 25.4982 0 25.2149C0 25.027 0.0925991 24.9316 0.370395 24.8372C2.40576 24.1763 2.86786 23.045 2.86786 21.4426V4.55743C2.86786 3.04758 2.40486 1.91542 0.370395 1.16096C0.0925991 1.16096 0 0.972116 0 0.877693C0 0.500919 0.462993 0.594427 0.64819 0.594427H18.9638C23.1262 0.594427 26.5497 3.98997 26.5497 8.23441C26.5497 12.4798 23.1262 15.8744 18.9638 15.8744H9.71295V21.6287C9.80645 23.1376 10.2685 24.1744 12.2113 24.8354C12.4891 24.9307 12.5808 25.0251 12.5808 25.2131C12.5808 25.4963 12.1187 25.4963 11.9335 25.4963H2.86786V25.4982ZM139.407 16.3483H143.754L139.407 8.80186L138.943 8.04648L135.059 16.3483H139.407ZM139.407 0.501839H142.367L154.762 22.7645C155.132 23.3283 155.594 23.8957 156.151 24.1772C156.613 24.5549 157.168 24.6502 157.63 24.8381C157.816 24.9335 158 25.0279 158 25.2158C158 25.4991 157.538 25.4991 157.352 25.4991H146.344C146.16 25.4991 145.603 25.4991 145.603 25.2158C145.603 25.0279 145.79 24.9325 145.976 24.8381C146.53 24.6502 146.899 24.3669 147.083 23.8013C147.269 23.1404 147.083 22.7645 146.621 21.9138C145.993 20.5525 145.346 19.2005 144.679 17.8582H134.318L134.226 18.0461C134.133 18.4238 133.394 19.7439 132.837 21.1593C132.098 22.6682 131.821 23.045 132.005 23.8004C132.099 24.366 132.56 24.6493 133.114 24.8372C133.3 24.9325 133.394 25.027 133.394 25.2149C133.394 25.4982 132.93 25.4982 132.746 25.4982H127.657C127.473 25.4982 127.009 25.4982 127.009 25.2149C127.009 25.027 127.103 24.9316 127.38 24.8372C127.843 24.6493 128.396 24.5539 128.859 24.1763C129.414 23.8948 129.878 23.3274 130.247 22.7636L130.895 21.3472L137.925 6.34962L136.906 4.55743C135.983 3.04758 135.057 2.10427 134.039 1.53865C133.577 1.25538 133.114 1.25538 132.652 1.06654C132.375 0.972117 132.282 0.877692 132.374 0.688846C132.374 0.500001 132.559 0.594423 132.652 0.5H139.407V0.501839ZM111.747 25.4028H112.117C129.139 25.4028 128.955 0.595343 112.117 0.595343H98.149C97.8712 0.595343 97.41 0.500919 97.41 0.878609C97.41 0.973032 97.5943 1.16188 97.7786 1.16188C99.814 1.82192 100.277 2.95407 100.369 4.3695V21.6314C100.277 23.1403 99.814 24.1772 97.7786 24.8381C97.5943 24.9335 97.41 25.0279 97.41 25.2158C97.41 25.4991 97.8721 25.4991 98.149 25.4991H107.122V25.4037L111.747 25.4028ZM111.747 2.38754C114.338 2.38754 116.466 4.55743 116.466 7.1976V18.7062C116.466 21.3472 114.338 23.5171 111.747 23.5171H107.121V2.38754H111.747ZM76.5025 16.3483H80.8502L76.5025 8.80186L76.0405 8.04648L72.1558 16.3483H76.5025ZM76.5025 0.501839H79.5556L91.9512 22.7645C92.229 23.3283 92.692 23.8957 93.2467 24.1772C93.7088 24.5549 94.2653 24.6502 94.82 24.8381C95.0043 24.9335 95.1886 25.0279 95.1886 25.2158C95.1886 25.4991 94.6339 25.4991 94.4496 25.4991H83.4429C83.2568 25.4991 82.7947 25.4991 82.7947 25.2158C82.7947 25.0279 82.8865 24.9325 83.1633 24.8381C83.6272 24.6502 84.0884 24.3669 84.1819 23.8013C84.3662 23.1404 84.1819 22.7645 83.8115 21.9138C83.1634 20.4993 82.4244 19.1783 81.778 17.8582H71.4141L71.3224 18.0461C71.2298 18.4238 70.5816 19.7439 69.9343 21.1593C69.2871 22.6682 68.9176 23.045 69.1028 23.8004C69.288 24.366 69.6574 24.6493 70.213 24.8372C70.3973 24.9325 70.5825 25.027 70.5825 25.2149C70.5825 25.4982 70.1204 25.4982 69.8435 25.4982H64.8468C64.6616 25.4982 64.106 25.4982 64.106 25.2149C64.106 25.027 64.2912 24.9316 64.4764 24.8372C65.032 24.6493 65.4941 24.5539 66.0497 24.1763C66.5118 23.8948 67.0674 23.3274 67.3443 22.7636L67.9916 21.3472L75.1154 6.34962L74.0977 4.55743C73.1726 3.04758 72.1549 2.10427 71.2298 1.53865C70.6742 1.25538 70.3047 1.25538 69.7491 1.06654C69.5639 0.972117 69.3788 0.877692 69.4723 0.688846C69.5639 0.500001 69.7491 0.594423 69.8426 0.5H76.5025V0.501839ZM45.9756 17.0093C48.1036 17.7628 50.6936 17.9508 52.7281 17.2926L60.777 24.3669L61.4243 24.9325C61.5178 25.0279 61.5178 25.1205 61.5178 25.2158C61.5178 25.4991 61.0548 25.4991 60.8696 25.4991H52.3595L45.9765 20.1225L40.7955 15.8771V21.7268C40.889 23.1413 41.4437 24.1781 43.3855 24.839C43.5707 24.9344 43.6633 25.0288 43.6633 25.2167C43.6633 25.5 43.2003 25.5 43.0151 25.5H31.8215C31.5446 25.5 31.0816 25.5 31.0816 25.2167C31.0816 25.0288 31.2668 24.9335 31.4511 24.839C33.6717 24.0855 33.9495 22.9533 34.0412 21.1611V4.83978C33.9486 3.142 33.6708 1.91542 31.4511 1.16096C31.2659 1.16096 31.0816 0.972116 31.0816 0.877693C31.0816 0.500919 31.5446 0.594427 31.8215 0.594427H49.8602C50.8454 0.590182 51.8216 0.784893 52.7325 1.16732C53.6435 1.54975 54.4711 2.11233 55.1678 2.82261C55.8644 3.53288 56.4162 4.37678 56.7914 5.30563C57.1665 6.23448 57.3576 7.22988 57.3535 8.23441C57.3577 9.23897 57.1667 10.2344 56.7916 11.1633C56.4165 12.0922 55.8647 12.9362 55.168 13.6465C54.4714 14.3568 53.6437 14.9194 52.7327 15.3017C51.8217 15.6841 50.8454 15.8788 49.8602 15.8744H44.0328C44.3106 16.44 44.9579 16.6298 45.5126 16.913C45.6978 16.914 45.7904 17.0093 45.9756 17.0093ZM45.9756 14.0849H46.7155C49.1204 14.0849 51.1557 11.4429 51.1557 8.04648C51.1557 4.74535 49.1204 2.10427 46.7155 2.10427H40.7946V14.0849H45.9756ZM14.9857 2.10519H9.71295V14.0859H15.8191C18.3165 14.0859 20.2593 11.4439 20.2593 8.0474C20.2593 4.74627 18.3165 2.10519 15.8191 2.10519H14.9857Z" fill="#252525"/>
</svg>
