<svg width="36" height="36" viewBox="0 0 36 36" fill="none" xmlns="http://www.w3.org/2000/svg">
<path fill-rule="evenodd" clip-rule="evenodd" d="M24.3732 22.9431H25.9532L34.4332 31.4631C35.2532 32.2831 35.2532 33.6231 34.4332 34.4431C33.6132 35.2631 32.2732 35.2631 31.4532 34.4431L22.9532 25.9431V24.3631L22.4132 23.8031C19.6132 26.2031 15.7932 27.4431 11.7332 26.7631C6.17316 25.8231 1.73316 21.1831 1.05316 15.5831C0.0131555 7.12315 7.13316 0.00314574 15.5932 1.04315C21.1932 1.72315 25.8332 6.16315 26.7732 11.7231C27.4532 15.7831 26.2132 19.6031 23.8132 22.4031L24.3732 22.9431ZM4.95316 13.9431C4.95316 18.9231 8.97316 22.9431 13.9532 22.9431C18.9332 22.9431 22.9532 18.9231 22.9532 13.9431C22.9532 8.96315 18.9332 4.94315 13.9532 4.94315C8.97316 4.94315 4.95316 8.96315 4.95316 13.9431Z" fill="#171717"/>
</svg>
